<svg version="1.1" viewBox="0.0 0.0 852.4041994750656 174.91601049868765" fill="none" stroke="none" stroke-linecap="square" stroke-miterlimit="10" xmlns:xlink="http://www.w3.org/1999/xlink" xmlns="http://www.w3.org/2000/svg"><clipPath id="p.0"><path d="m0 0l852.4042 0l0 174.91602l-852.4042 0l0 -174.91602z" clip-rule="nonzero"/></clipPath><g clip-path="url(#p.0)"><path fill="#000000" fill-opacity="0.0" d="m0 0l852.4042 0l0 174.91602l-852.4042 0z" fill-rule="evenodd"/><path fill="#000000" d="m35.553017 31.004807l0 107.03801l22.255665 0l0 -46.4039c0.047912598 -3.4497452 0.7186966 -6.4043884 2.012352 -8.863937c1.3096237 -2.4595413 3.1223335 -4.336136 5.4381447 -5.6297913c2.315796 -1.2936554 4.990944 -1.9404831 8.025459 -1.9404831c4.535782 0 8.065384 1.3814926 10.588806 4.1444855c2.5234299 2.7470245 3.7691727 6.5960464 3.7372284 11.547073l0 47.146553l22.255661 0l0 -51.123344c0.047912598 -6.2766266 -1.0940094 -11.666855 -3.4257889 -16.170692c-2.315796 -4.5198135 -5.55793 -7.9855347 -9.726372 -10.39716c-4.152481 -2.427597 -9.015663 -3.6413994 -14.589561 -3.6413994c-6.100937 0 -11.171745 1.3495522 -15.212425 4.0486603c-4.040676 2.699112 -6.971367 6.4203644 -8.7920685 11.163765l-0.9343071 0l0 -40.91784z" fill-rule="evenodd"/><path fill="#000000" d="m138.46202 24.871922c-3.2900238 0 -6.1168976 1.1099892 -8.480621 3.3299637c-2.3637161 2.2040062 -3.545578 4.8392296 -3.545578 7.905674c0 3.1143532 1.1818619 5.781521 3.545578 8.001499c2.3637085 2.2040024 5.206558 3.3060074 8.528534 3.3060074c3.306015 0 6.132889 -1.102005 8.480637 -3.3060074c2.3637238 -2.2199783 3.545578 -4.887146 3.545578 -8.001499c0 -3.0664444 -1.1818542 -5.701668 -3.545578 -7.905674c-2.3477478 -2.2199745 -5.1905975 -3.3299637 -8.528549 -3.3299637zm-11.02002 32.892387l0 80.2785l22.255661 0l0 -80.2785z" fill-rule="evenodd"/><path fill="#000000" d="m173.27759 123.40534l-0.2635193 5.8454056c-0.20762634 4.743408 -0.7107239 9.398972 -1.5092773 13.96669c-0.7985382 4.5677185 -1.6529999 8.688248 -2.5633545 12.361603c-0.91033936 3.6733398 -1.6210632 6.540146 -2.1321259 8.600403l14.42186 0c0.8304901 -2.1241455 1.9324951 -5.05484 3.306015 -8.792053c1.3735046 -3.7212677 2.6990967 -7.873749 3.9767914 -12.457428c1.2776794 -4.5836945 2.1401215 -9.175369 2.5873108 -13.77504l0.5749512 -5.7495804z" fill-rule="evenodd"/><path fill="#000000" d="m252.19948 24.871922c-3.290039 0 -6.116913 1.1099892 -8.480621 3.3299637c-2.3637238 2.2040062 -3.545578 4.8392296 -3.545578 7.905674c0 3.1143532 1.1818542 5.781521 3.545578 8.001499c2.3637085 2.2040024 5.206558 3.3060074 8.528534 3.3060074c3.306015 0 6.132889 -1.102005 8.480637 -3.3060074c2.3637085 -2.2199783 3.5455627 -4.887146 3.5455627 -8.001499c0 -3.0664444 -1.1818542 -5.701668 -3.5455627 -7.905674c-2.3477478 -2.2199745 -5.1905975 -3.3299637 -8.528549 -3.3299637zm-11.02002 32.892387l0 80.2785l22.255661 0l0 -80.2785z" fill-rule="evenodd"/><path fill="#000000" d="m279.6364 31.004807l0 40.65432l15.907166 0l0 -40.65432z" fill-rule="evenodd"/><path fill="#000000" d="m356.48703 56.71022c-5.4461365 0 -10.117676 1.3575401 -14.014618 4.0726166c-3.8969116 2.7150803 -6.6838684 6.4283524 -8.36084 11.139809l-0.93429565 0l0 -14.158337l-21.225525 0l0 80.2785l22.255646 0l0 -48.200645c0 -2.9546432 0.5749512 -5.533966 1.724884 -7.737976c1.1499023 -2.2199783 2.7070923 -3.944847 4.6715393 -5.1746216c1.9804077 -1.2457428 4.2083435 -1.8686142 6.6838684 -1.8686142c3.6573792 0 6.6040344 1.1658936 8.839996 3.4976654c2.2519226 2.3317719 3.3778687 5.470085 3.3778687 9.414932l0 50.06926l21.58487 0l0 -49.039124c0 -4.168442 1.1339722 -7.5303497 3.4018555 -10.085724c2.2678833 -2.5713348 5.4221497 -3.85701 9.46283 -3.85701c3.561554 0 6.52417 1.117981 8.887909 3.3539276c2.3637085 2.2199783 3.5455627 5.5579224 3.5455627 10.013847l0 49.614082l22.23172 0l0 -53.99814c0 -8.704224 -2.3477478 -15.43602 -7.0432434 -20.195396c-4.679535 -4.7593765 -10.764496 -7.139061 -18.254913 -7.139061c-5.8933105 0 -10.996063 1.3894806 -15.308258 4.1684456c-4.2962036 2.762989 -7.25885 6.444317 -8.887878 11.04398l-0.838501 0c-1.2936401 -4.6635437 -3.8729553 -8.360844 -7.737976 -11.091896c-3.8649902 -2.7470207 -8.55249 -4.120529 -14.0625 -4.120529z" fill-rule="evenodd"/><g filter="url(#shadowFilter-p.1)"><use xlink:href="#p.1" transform=""/></g><defs><filter id="shadowFilter-p.1" filterUnits="userSpaceOnUse"><feGaussianBlur in="SourceAlpha" stdDeviation="9.5" result="blur"/><feComponentTransfer in="blur" color-interpolation-filters="sRGB"><feFuncR type="linear" slope="0" intercept="0.12156863"/><feFuncG type="linear" slope="0" intercept="0.3647059"/><feFuncB type="linear" slope="0" intercept="1.0"/><feFuncA type="linear" slope="0.5" intercept="0"/></feComponentTransfer></filter></defs><g id="p.1"><defs><linearGradient id="p.2" gradientUnits="userSpaceOnUse" gradientTransform="matrix(17.979713205802593 0.0 0.0 17.979713205802593 0.0 0.0)" spreadMethod="pad" x1="48.618762755294675" y1="4.573877735602609" x2="35.90530309221009" y2="-8.139816863452118"><stop offset="0.0" stop-color="#0c45ff"/><stop offset="1.0" stop-color="#0098ff"/></linearGradient></defs><path fill="url(#p.2)" d="m510.4909 56.71022c-6.851593 0 -12.832733 1.0141602 -17.943481 3.0424843c-5.1107483 2.012352 -9.071564 4.887142 -11.882477 8.624371c-2.7949219 3.7212524 -4.192383 8.1612015 -4.192383 13.319862c0 5.9891434 1.9085083 10.924202 5.7256165 14.805168c3.8170776 3.8649979 9.646515 6.580078 17.488312 8.145233l13.894806 2.7550125c3.4816895 0.7027283 6.061035 1.7089005 7.737976 3.0185242c1.6769409 1.3096237 2.531433 2.9706192 2.5633545 4.982971c-0.031921387 2.4116287 -1.2457275 4.376068 -3.6414185 5.893318c-2.3796997 1.5172577 -5.526001 2.275879 -9.438873 2.275879c-3.9608154 0 -7.218933 -0.8464737 -9.774292 -2.5393982c-2.5393982 -1.6929321 -4.136505 -4.1604614 -4.791321 -7.402588l-21.896301 1.1499176c1.0700378 7.666107 4.7513733 13.719131 11.043976 18.159088c6.2926025 4.4399567 14.749268 6.6599274 25.370026 6.6599274c6.9793396 0 13.1362 -1.102005 18.47055 -3.3059998c5.350281 -2.2199707 9.56665 -5.310379 12.649048 -9.271202c3.0983887 -3.9767914 4.647583 -8.60041 4.647583 -13.870865c0 -5.7815247 -1.916565 -10.445068 -5.7495728 -13.990639c-3.8330688 -3.5615463 -9.654541 -6.140869 -17.464355 -7.737976l-14.5416565 -2.9227066c-3.7212524 -0.8145218 -6.34848 -1.8765945 -7.881714 -3.186226c-1.5332336 -1.325592 -2.2998352 -2.9466553 -2.2998352 -4.863182c0 -2.4116364 1.1818542 -4.3361435 3.5455933 -5.7735367c2.3796692 -1.4533691 5.294403 -2.1800537 8.744141 -2.1800537c2.57135 0 4.791321 0.431221 6.659912 1.2936554c1.8686523 0.84646606 3.3778687 1.9804077 4.527832 3.4018402c1.1499023 1.4054489 1.8925171 2.9785995 2.2279663 4.7194443l20.387024 -1.2696991c-0.97424316 -7.378624 -4.384033 -13.208061 -10.229431 -17.488304c-5.829468 -4.2962112 -13.815002 -6.4443207 -23.956604 -6.4443207z" fill-rule="evenodd"/><defs><linearGradient id="p.3" gradientUnits="userSpaceOnUse" gradientTransform="matrix(17.979713205802593 0.0 0.0 17.979713205802593 0.0 0.0)" spreadMethod="pad" x1="48.618762755294675" y1="4.573877735602609" x2="35.90530309221009" y2="-8.139816863452118"><stop offset="0.0" stop-color="#0c45ff"/><stop offset="1.0" stop-color="#0098ff"/></linearGradient></defs><path fill="url(#p.3)" d="m606.57227 100.83824l0 8.504593c0 2.8268738 -0.71868896 5.358284 -2.156128 7.5942307c-1.4213867 2.2199783 -3.3858643 3.9847717 -5.8933105 5.2944107c-2.5074463 1.3096161 -5.3981934 1.9644394 -8.672241 1.9644394c-3.4178467 0 -6.2366943 -0.7905731 -8.456726 -2.371704c-2.2039795 -1.5970993 -3.3059692 -3.9129028 -3.3059692 -6.9474106c0 -2.076233 0.5350342 -3.81707 1.6051025 -5.222534c1.0859985 -1.4214249 2.6032715 -2.5473862 4.551758 -3.3778763c1.9484253 -0.8464737 4.2323 -1.4613495 6.8515625 -1.8446579c1.2138062 -0.1756897 2.57135 -0.37532806 4.072632 -0.5989151c1.5012817 -0.2236023 3.0025635 -0.4791336 4.503845 -0.7666092c1.5012207 -0.3034439 2.85083 -0.6388397 4.048645 -1.0061798c1.197815 -0.36733246 2.1480713 -0.77459717 2.85083 -1.2217865zm-11.9782715 -44.12802c-6.404419 0 -12.042175 0.96624756 -16.913391 2.8987465c-4.8551636 1.9324989 -8.815979 4.687504 -11.882446 8.265018c-3.0664673 3.5775146 -5.1187134 7.801857 -6.1568604 12.673035l20.578735 1.6769562c0.76660156 -2.6511917 2.331787 -4.8552017 4.6954956 -6.612015c2.3796387 -1.756813 5.5738525 -2.6352234 9.582642 -2.6352234c3.8010864 0 6.7317505 0.9103546 8.792053 2.7310486c2.076233 1.8047333 3.1143188 4.3601 3.1143188 7.666107l0 0.3114395c0 1.7089005 -0.64678955 3.0025558 -1.9404907 3.8809662c-1.2776489 0.8624344 -3.3458862 1.5092621 -6.204712 1.9404831c-2.8588257 0.43121338 -6.619995 0.89437866 -11.283569 1.3894806c-3.9768066 0.3833084 -7.7698975 1.0461044 -11.379395 1.9883957c-3.609436 0.94229126 -6.8275757 2.3397522 -9.65448 4.1924057c-2.810913 1.8366623 -5.0388794 4.2722473 -6.683899 7.306755c-1.6290283 3.0344925 -2.4435425 6.779709 -2.4435425 11.235634c0 5.3023987 1.157898 9.726372 3.4736938 13.27195c2.315796 3.529602 5.4780884 6.1887817 9.486816 7.977539c4.008728 1.7887573 8.576416 2.683136 13.703125 2.683136c3.9608154 0 7.458496 -0.5270386 10.492981 -1.581131c3.034546 -1.0700531 5.629822 -2.555359 7.7858887 -4.4559174c2.156128 -1.9005737 3.8809814 -4.1045685 5.1746216 -6.6120224l0.6229248 0l0 11.139809l21.1297 0l0 -54.141876c0 -4.775345 -0.92633057 -8.879906 -2.7789917 -12.313683c-1.8366699 -3.4337769 -4.352112 -6.2446823 -7.5463257 -8.432716c-3.1942139 -2.2040062 -6.8356323 -3.8250694 -10.924194 -4.863186c-4.088562 -1.0540924 -8.368835 -1.5811348 -12.840698 -1.5811348z" fill-rule="evenodd"/><defs><linearGradient id="p.4" gradientUnits="userSpaceOnUse" gradientTransform="matrix(17.979713205802593 0.0 0.0 17.979713205802593 0.0 0.0)" spreadMethod="pad" x1="48.618762755294675" y1="4.573877735602609" x2="35.90530309221009" y2="-8.139816863452118"><stop offset="0.0" stop-color="#0c45ff"/><stop offset="1.0" stop-color="#0098ff"/></linearGradient></defs><path fill="url(#p.4)" d="m677.2945 25.973925c-5.062866 0 -9.582642 0.9582615 -13.559448 2.8747883c-3.9608154 1.9165268 -7.08313 4.791317 -9.367004 8.624371c-2.2838745 3.8330536 -3.4257812 8.664299 -3.4257812 14.493732l0 5.797493l-11.331482 0l0 16.721691l11.331482 0l0 63.556816l22.207703 0l0 -63.556816l16.003052 0l0 -16.721691l-16.003052 0l0 -5.390232c0 -2.7150764 0.6468506 -4.831238 1.9404907 -6.3484917c1.2937012 -1.5172539 3.5775146 -2.275879 6.8516235 -2.275879c1.3255615 0 2.6192017 0.12776947 3.8809204 0.3833084c1.27771 0.23956299 2.355774 0.49510193 3.2341309 0.7666092l3.9768066 -16.721695c-1.4054565 -0.41524887 -3.529602 -0.8863926 -6.3724365 -1.4134388c-2.8269043 -0.5270443 -5.9492188 -0.7905655 -9.367004 -0.7905655z" fill-rule="evenodd"/><defs><linearGradient id="p.5" gradientUnits="userSpaceOnUse" gradientTransform="matrix(17.979713205802593 0.0 0.0 17.979713205802593 0.0 0.0)" spreadMethod="pad" x1="48.618762755294675" y1="4.573877735602609" x2="35.90530309221009" y2="-8.139816863452118"><stop offset="0.0" stop-color="#0c45ff"/><stop offset="1.0" stop-color="#0098ff"/></linearGradient></defs><path fill="url(#p.5)" d="m713.76746 24.871922c-3.290039 0 -6.1169434 1.1099892 -8.480652 3.3299637c-2.3637085 2.2040062 -3.5455933 4.8392296 -3.5455933 7.905674c0 3.1143532 1.1818848 5.781521 3.5455933 8.001499c2.3637085 2.2040024 5.206543 3.3060074 8.528564 3.3060074c3.3059692 0 6.1328735 -1.102005 8.480591 -3.3060074c2.3637695 -2.2199783 3.5455933 -4.887146 3.5455933 -8.001499c0 -3.0664444 -1.1818237 -5.701668 -3.5455933 -7.905674c-2.3477173 -2.2199745 -5.1905518 -3.3299637 -8.528503 -3.3299637zm-11.02002 32.892387l0 80.2785l22.255615 0l0 -80.2785z" fill-rule="evenodd"/><defs><linearGradient id="p.6" gradientUnits="userSpaceOnUse" gradientTransform="matrix(17.979713205802593 0.0 0.0 17.979713205802593 0.0 0.0)" spreadMethod="pad" x1="48.618762755294675" y1="4.573877735602609" x2="35.90530309221009" y2="-8.139816863452118"><stop offset="0.0" stop-color="#0c45ff"/><stop offset="1.0" stop-color="#0098ff"/></linearGradient></defs><path fill="url(#p.6)" d="m789.09357 56.71022c-5.9572144 0 -11.028015 1.3735085 -15.212402 4.120529c-4.1844482 2.7310524 -7.163025 6.4283524 -8.935852 11.091896l-0.93426514 0l0 -14.158337l-21.225525 0l0 80.2785l22.255676 0l0 -46.4039c0.047912598 -3.4497452 0.70269775 -6.4043884 1.9644165 -8.863937c1.27771 -2.4595413 3.0584717 -4.336136 5.342285 -5.6297913c2.2838745 -1.2936554 4.9191284 -1.9404831 7.9057007 -1.9404831c4.471863 0 7.977539 1.3894806 10.516907 4.168442c2.5394287 2.7629929 3.7931519 6.604027 3.7612305 11.523117l0 47.146553l22.255676 0l0 -51.123344c0 -6.228714 -1.1499634 -11.594986 -3.449768 -16.098824c-2.2998657 -4.5198135 -5.526001 -8.001499 -9.678467 -10.445072c-4.1364746 -2.443573 -8.991699 -3.6653557 -14.565613 -3.6653557z" fill-rule="evenodd"/></g></g></svg>