
<svg version="1.1" viewBox="0.0 0.0 852.4041994750656 174.91601049868765" fill="none" stroke="none" stroke-linecap="square" stroke-miterlimit="10" xmlns:xlink="http://www.w3.org/1999/xlink" xmlns="http://www.w3.org/2000/svg"><clipPath id="p.0"><path d="m0 0l852.4042 0l0 174.91602l-852.4042 0l0 -174.91602z" clip-rule="nonzero"/></clipPath><g clip-path="url(#p.0)"><path fill="#000000" fill-opacity="0.0" d="m0 0l852.4042 0l0 174.91602l-852.4042 0z" fill-rule="evenodd"/><path fill="#000000" d="m42.91259 26.75646l0 108.93058l21.776535 0l0 -50.045303c0 -1.8686142 0.3912964 -3.5136337 1.1738739 -4.935051c0.79855347 -1.4214249 1.8526459 -2.619255 3.162262 -3.5934906c1.3256073 -0.99020386 2.818901 -1.7009201 4.4798813 -2.1321335c1.6769638 -0.44719696 3.4018402 -0.670784 5.1746216 -0.670784c4.0247116 0 6.819641 1.2058105 8.384804 3.6174393c1.5651703 2.3956604 2.3477478 6.0929565 2.3477478 11.091896l0 46.667427l21.800491 0l0 -48.416252c0 -9.822197 -2.0363083 -17.37651 -6.1089325 -22.662926c-4.0726166 -5.302391 -10.085716 -7.9535904 -18.039307 -7.9535904c-6.0849686 0 -10.844337 1.4693375 -14.278122 4.4080124c-3.4337769 2.938675 -5.837425 6.4203644 -7.21093 10.445068l-0.8863907 0l0 -44.750893z" fill-rule="evenodd"/><path fill="#000000" d="m141.53758 25.438848c-4.4239807 0 -7.642151 1.006176 -9.6545105 3.01853c-2.0123444 2.012352 -3.0185242 4.5916786 -3.0185242 7.737976l0 3.2341385c0 3.1303253 1.0061798 5.701668 3.0185242 7.71402c2.0123596 2.012352 5.23053 3.018528 9.6545105 3.018528c4.4080048 0 7.6181946 -1.006176 9.630539 -3.018528c2.0123596 -2.012352 3.0185394 -4.5836945 3.0185394 -7.71402l0 -3.2341385c0 -3.1462975 -1.0061798 -5.725624 -3.0185394 -7.737976c-2.0123444 -2.012354 -5.222534 -3.01853 -9.630539 -3.01853zm-10.900238 32.964256l0 77.283936l21.77652 0l0 -77.283936z" fill-rule="evenodd"/><path fill="#000000" d="m185.69395 110.82011c-4.4239807 0 -7.690048 1.102005 -9.798233 3.3060074c-2.1081848 2.20401 -3.1622772 5.022896 -3.1622772 8.45668l0 2.9466553c0 2.8428497 0.7825928 5.3183594 2.3477478 7.426544c1.581131 2.1081696 4.0885925 3.4577332 7.5223694 4.0486603c-1.2776794 3.9288788 -3.1463013 7.482437 -5.605835 10.660675c-2.443573 3.1942139 -5.3902283 6.412384 -8.839981 9.6545105l14.733292 0c4.7114716 -3.6254425 8.5125885 -8.336899 11.403336 -14.134384c2.8907623 -5.7815247 4.336151 -11.666855 4.336151 -17.656006l0 -2.9466553c0 -3.4337845 -1.0540924 -6.2526703 -3.1622772 -8.45668c-2.1081848 -2.2040024 -5.366272 -3.3060074 -9.774292 -3.3060074z" fill-rule="evenodd"/><path fill="#000000" d="m263.99896 25.438848c-4.4239807 0 -7.642151 1.006176 -9.654495 3.01853c-2.0123444 2.012352 -3.0185242 4.5916786 -3.0185242 7.737976l0 3.2341385c0 3.1303253 1.0061798 5.701668 3.0185242 7.71402c2.0123444 2.012352 5.2305145 3.018528 9.654495 3.018528c4.40802 0 7.6181946 -1.006176 9.630554 -3.018528c2.0123596 -2.012352 3.0185242 -4.5836945 3.0185242 -7.71402l0 -3.2341385c0 -3.1462975 -1.0061646 -5.725624 -3.0185242 -7.737976c-2.0123596 -2.012354 -5.222534 -3.01853 -9.630554 -3.01853zm-10.900238 32.964256l0 77.283936l21.77655 0l0 -77.283936z" fill-rule="evenodd"/><path fill="#000000" d="m295.05112 26.75646l0 47.98503l19.428772 0l0 -47.98503z" fill-rule="evenodd"/><path fill="#000000" d="m378.05087 56.654274c-5.7815247 0 -10.341278 1.4453812 -13.67923 4.3361435c-3.3379517 2.8907623 -5.6936646 6.396408 -7.067169 10.516937l-0.8864136 0l0 -13.104248l-21.77652 0l0 77.283936l21.77652 0l0 -50.045303c0 -1.8686142 0.3673401 -3.5136337 1.1020203 -4.935051c0.73464966 -1.4214249 1.7168884 -2.619255 2.9466553 -3.5934906c1.2297668 -0.99020386 2.6032715 -1.7009201 4.120514 -2.1321335c1.517273 -0.44719696 3.0664673 -0.670784 4.647583 -0.670784c7.059204 0 10.588806 4.9031143 10.588806 14.709335l0 46.667427l21.77655 0l0 -50.045303c0 -3.8330536 1.325592 -6.6759033 3.9767761 -8.528542c2.6512146 -1.8686142 5.59787 -2.8029175 8.839996 -2.8029175c7.059204 0 10.588806 4.9031143 10.588806 14.709335l0 46.667427l21.800476 0l0 -48.416252c0 -9.822197 -1.9883728 -17.37651 -5.9651794 -22.662926c-3.9768066 -5.302391 -9.6944275 -7.9535904 -17.152924 -7.9535904c-2.9386597 0 -5.685669 0.41524887 -8.241058 1.2457428c-2.555359 0.83049774 -4.8631897 1.9325027 -6.923462 3.3060112c-2.0602417 1.3735085 -3.8010864 3.018528 -5.222534 4.935055c-1.4214172 1.9165268 -2.4754944 3.952835 -3.162262 6.108925l-0.43121338 0c-1.6769714 -5.110733 -4.3840637 -8.983715 -8.121277 -11.618938c-3.7212524 -2.6511993 -8.233093 -3.9767952 -13.535461 -3.9767952z" fill-rule="evenodd"/><g filter="url(#shadowFilter-p.1)"><use xlink:href="#p.1" transform=""/></g><defs><filter id="shadowFilter-p.1" filterUnits="userSpaceOnUse"><feGaussianBlur in="SourceAlpha" stdDeviation="9.5" result="blur"/><feComponentTransfer in="blur" color-interpolation-filters="sRGB"><feFuncR type="linear" slope="0" intercept="0.12156863"/><feFuncG type="linear" slope="0" intercept="0.3647059"/><feFuncB type="linear" slope="0" intercept="1.0"/><feFuncA type="linear" slope="0.5" intercept="0"/></feComponentTransfer></filter></defs><g id="p.1"><defs><linearGradient id="p.2" gradientUnits="userSpaceOnUse" gradientTransform="matrix(17.6349659288543 0.0 0.0 17.6349659288543 0.0 0.0)" spreadMethod="pad" x1="49.07866902945633" y1="4.618685818422496" x2="36.60897898626129" y2="-7.851232125914371"><stop offset="0.0" stop-color="#0c45ff"/><stop offset="1.0" stop-color="#0098ff"/></linearGradient></defs><path fill="url(#p.2)" d="m514.23303 56.654274c-4.615631 0 -8.768127 0.61489105 -12.457428 1.8446579c-3.6733398 1.2138023 -6.8116455 2.9306946 -9.4149475 5.1506653c-2.6032715 2.20401 -4.615631 4.8552017 -6.0370483 7.953583c-1.4214172 3.0824203 -2.132141 6.484253 -2.132141 10.205505c0 13.735115 8.688263 21.688698 26.064758 23.860756l8.384827 1.0301361c5.206543 0.6867523 7.8098145 2.842842 7.8098145 6.468277c0 2.251915 -0.83843994 4.0406723 -2.515442 5.366272c-1.6609497 1.3256073 -4.6555786 1.9883957 -8.983704 1.9883957c-4.2163696 0 -7.9934998 -0.8784027 -11.331451 -2.6352234c-3.3379517 -1.7727814 -6.3804626 -4.1764297 -9.127472 -7.21093l-12.792816 12.936554c4.024719 4.423973 8.584442 7.8417892 13.67923 10.253426c5.110718 2.3956451 11.395355 3.5934753 18.85382 3.5934753c4.9989014 0 9.534729 -0.6388397 13.607361 -1.9165192c4.072571 -1.2776947 7.5542603 -3.066452 10.445068 -5.366272c2.890747 -2.3158035 5.1187134 -5.038864 6.683838 -8.169197c1.5811768 -3.1463013 2.371704 -6.5800858 2.371704 -10.301331c0 -13.255981 -8.488586 -21.009933 -25.46582 -23.26184l-8.672302 -1.1738739c-3.1463013 -0.49510956 -5.2864075 -1.3016434 -6.420349 -2.4196167c-1.117981 -1.1339417 -1.6769714 -2.7310486 -1.6769714 -4.791313c0 -1.9644394 0.7825928 -3.5375977 2.3477478 -4.719452c1.5651855 -1.1818542 4.2163696 -1.772789 7.9536133 -1.772789c3.2261353 0 6.3883667 0.71071625 9.486755 2.132141c3.0983887 1.4214172 5.869385 3.3619003 8.312988 5.8214493l12.50531 -12.816772c-1.9484863 -1.8526382 -3.928894 -3.5375824 -5.941223 -5.05484c-2.0123901 -1.5332222 -4.224365 -2.8109016 -6.6359863 -3.8330536c-2.39563 -1.0381165 -5.1427 -1.8206978 -8.241089 -2.347744c-3.0983887 -0.54301834 -6.6519165 -0.8145256 -10.660645 -0.8145256z" fill-rule="evenodd"/><defs><linearGradient id="p.3" gradientUnits="userSpaceOnUse" gradientTransform="matrix(17.6349659288543 0.0 0.0 17.6349659288543 0.0 0.0)" spreadMethod="pad" x1="49.07866902945633" y1="4.618685818422496" x2="36.60897898626129" y2="-7.851232125914371"><stop offset="0.0" stop-color="#0c45ff"/><stop offset="1.0" stop-color="#0098ff"/></linearGradient></defs><path fill="url(#p.3)" d="m602.38306 103.154l0 9.127464c0 3.529602 -1.3016357 6.0849686 -3.9049072 7.6660995c-2.5873413 1.5651703 -5.70166 2.3477478 -9.343079 2.3477478c-3.2261353 0 -5.725647 -0.662796 -7.498413 -1.9883957c-1.7727661 -1.3255997 -2.6591797 -3.4098206 -2.6591797 -6.2526703l0 -2.2040024c0 -5.797493 4.272217 -8.696243 12.816772 -8.696243zm-11.187744 -46.499725c-8.145203 0 -14.597534 1.3016396 -19.356934 3.9049263c-4.7593384 2.5873108 -8.704224 6.188778 -11.834534 10.804417l12.936584 11.475204c1.6769409 -2.3477478 3.7850952 -4.455925 6.324524 -6.324539c2.555359 -1.8686142 5.9971313 -2.8029175 10.325256 -2.8029175c4.5996704 0 7.881714 1.1099854 9.846191 3.3299637c1.9644165 2.2040024 2.9466553 5.1666336 2.9466553 8.887894l0 4.863182l-12.217834 0c-10.205505 0 -18.27893 1.9883957 -24.220154 5.965187c-5.925232 3.976799 -8.887878 10.037811 -8.887878 18.183052c0 6.771721 2.0603027 12.217857 6.180786 16.338394c4.1205444 4.120529 10.053772 6.180786 17.799744 6.180786c5.8933105 0 10.852356 -1.3016357 14.877075 -3.9049225c4.024658 -2.6032715 6.6279907 -6.404381 7.8098145 -11.403328l0.86242676 0c0.6867676 4.120529 2.331787 7.410576 4.9350586 9.87011c2.6032715 2.443573 5.869385 3.6653595 9.798279 3.6653595l12.074097 0l0 -16.937302l-7.2109375 0l0 -33.850655c0 -9.2153015 -2.755005 -16.226593 -8.265015 -21.033878c-5.4940186 -4.807289 -13.735107 -7.2109337 -24.723206 -7.2109337z" fill-rule="evenodd"/><defs><linearGradient id="p.4" gradientUnits="userSpaceOnUse" gradientTransform="matrix(17.6349659288543 0.0 0.0 17.6349659288543 0.0 0.0)" spreadMethod="pad" x1="49.07866902945633" y1="4.618685818422496" x2="36.60897898626129" y2="-7.851232125914371"><stop offset="0.0" stop-color="#0c45ff"/><stop offset="1.0" stop-color="#0098ff"/></linearGradient></defs><path fill="url(#p.4)" d="m709.99445 25.438848c-4.42395 0 -7.642151 1.006176 -9.65448 3.01853c-2.0123901 2.012352 -3.0185547 4.5916786 -3.0185547 7.737976l0 3.2341385c0 3.1303253 1.0061646 5.701668 3.0185547 7.71402c2.012329 2.012352 5.23053 3.018528 9.65448 3.018528c4.40802 0 7.618225 -1.006176 9.630554 -3.018528c2.012329 -2.012352 3.0185547 -4.5836945 3.0185547 -7.71402l0 -3.2341385c0 -3.1462975 -1.0062256 -5.725624 -3.0185547 -7.737976c-2.012329 -2.012354 -5.222534 -3.01853 -9.630554 -3.01853zm-37.108765 1.3176117c-7.5542603 0 -13.295898 1.8925705 -17.224731 5.6777096c-3.9129639 3.785141 -5.869385 9.398968 -5.869385 16.84148l0 9.127457l-10.900269 0l0 16.937302l10.900269 0l0 60.346634l21.77655 0l0 -60.346634l27.526062 0l0 60.346634l21.77655 0l0 -77.283936l-49.302612 0l0 -14.709343l15.451965 0l0 -16.937304z" fill-rule="evenodd"/><defs><linearGradient id="p.5" gradientUnits="userSpaceOnUse" gradientTransform="matrix(17.6349659288543 0.0 0.0 17.6349659288543 0.0 0.0)" spreadMethod="pad" x1="49.07866902945633" y1="4.618685818422496" x2="36.60897898626129" y2="-7.851232125914371"><stop offset="0.0" stop-color="#0c45ff"/><stop offset="1.0" stop-color="#0098ff"/></linearGradient></defs><path fill="url(#p.5)" d="m785.34186 56.654274c-6.084961 0 -10.844299 1.4693375 -14.278076 4.4080124c-3.4337769 2.938675 -5.8374634 6.4203644 -7.2109375 10.445068l-0.8864136 0l0 -13.104248l-21.77655 0l0 77.283936l21.77655 0l0 -50.045303c0 -1.8686142 0.3912964 -3.5136337 1.1738892 -4.935051c0.79852295 -1.4214249 1.8526611 -2.619255 3.1622314 -3.5934906c1.3256226 -0.99020386 2.8189087 -1.7009201 4.4799194 -2.1321335c1.6769409 -0.44719696 3.4017944 -0.670784 5.1746216 -0.670784c4.024719 0 6.819641 1.2058105 8.384766 3.6174393c1.5651855 2.3956604 2.3477783 6.0929565 2.3477783 11.091896l0 46.667427l21.800476 0l0 -48.416252c0 -9.822197 -2.036316 -17.37651 -6.1089478 -22.662926c-4.072571 -5.302391 -10.085693 -7.9535904 -18.039307 -7.9535904z" fill-rule="evenodd"/></g><path fill="#000000" fill-opacity="0.0" d="m301.91864 3.9737532l248.5669 0l0 33.480312l-248.5669 0z" fill-rule="evenodd"/><path fill="#ffffff" d="m346.84796 19.808285l-1.203125 0.328125q-0.109375 -0.296875 -0.328125 -0.578125q-0.21875 -0.296875 -0.59375 -0.484375q-0.375 -0.1875 -0.96875 -0.1875q-0.796875 0 -1.328125 0.375q-0.53125 0.359375 -0.53125 0.921875q0 0.5 0.359375 0.796875q0.375 0.28125 1.140625 0.484375l1.296875 0.3125q1.171875 0.28125 1.734375 0.875q0.578125 0.578125 0.578125 1.484375q0 0.75 -0.4375 1.34375q-0.421875 0.59375 -1.1875 0.9375q-0.765625 0.34375 -1.78125 0.34375q-1.328125 0 -2.203125 -0.578125q-0.875 -0.59375 -1.109375 -1.703125l1.265625 -0.3125q0.1875 0.703125 0.6875 1.0625q0.515625 0.34375 1.34375 0.34375q0.9375 0 1.484375 -0.390625q0.5625 -0.40625 0.5625 -0.96875q0 -0.453125 -0.328125 -0.765625q-0.3125 -0.3125 -0.96875 -0.46875l-1.453125 -0.34375q-1.203125 -0.28125 -1.765625 -0.875q-0.5625 -0.609375 -0.5625 -1.5q0 -0.75 0.421875 -1.3125q0.421875 -0.5625 1.140625 -0.890625q0.71875 -0.328125 1.640625 -0.328125q1.296875 0 2.03125 0.578125q0.75 0.5625 1.0625 1.5zm5.9729004 -1.96875l0 1.140625l-4.515625 0l0 -1.140625l4.515625 0zm-3.203125 -2.078125l1.34375 0l0 8.3125q0 0.5625 0.171875 0.84375q0.171875 0.28125 0.421875 0.375q0.265625 0.09375 0.5625 0.09375q0.234375 0 0.375 -0.015625q0.140625 -0.03125 0.21875 -0.046875l0.28125 1.203125q-0.140625 0.046875 -0.390625 0.09375q-0.234375 0.0625 -0.609375 0.0625q-0.578125 0 -1.125 -0.234375q-0.53125 -0.25 -0.890625 -0.75q-0.359375 -0.5 -0.359375 -1.265625l0 -8.671875zm8.680328 11.0q-1.171875 0 -2.0625 -0.5625q-0.890625 -0.5625 -1.390625 -1.578125q-0.5 -1.015625 -0.5 -2.359375q0 -1.375 0.5 -2.390625q0.5 -1.015625 1.390625 -1.578125q0.890625 -0.5625 2.0625 -0.5625q1.1875 0 2.078125 0.5625q0.890625 0.5625 1.390625 1.578125q0.5 1.015625 0.5 2.390625q0 1.34375 -0.5 2.359375q-0.5 1.015625 -1.390625 1.578125q-0.890625 0.5625 -2.078125 0.5625zm0 -1.203125q0.90625 0 1.484375 -0.453125q0.578125 -0.46875 0.859375 -1.21875q0.28125 -0.75 0.28125 -1.625q0 -0.875 -0.28125 -1.625q-0.28125 -0.765625 -0.859375 -1.234375q-0.578125 -0.46875 -1.484375 -0.46875q-0.890625 0 -1.46875 0.46875q-0.578125 0.46875 -0.859375 1.234375q-0.28125 0.75 -0.28125 1.625q0 0.875 0.28125 1.625q0.28125 0.75 0.859375 1.21875q0.578125 0.453125 1.46875 0.453125zm6.014099 4.28125l0 -12.0l1.28125 0l0 1.390625l0.171875 0q0.140625 -0.21875 0.40625 -0.578125q0.265625 -0.359375 0.765625 -0.640625q0.5 -0.28125 1.34375 -0.28125q1.109375 0 1.9375 0.5625q0.84375 0.546875 1.3125 1.5625q0.484375 1.0 0.484375 2.375q0 1.390625 -0.484375 2.40625q-0.46875 1.015625 -1.3125 1.578125q-0.828125 0.546875 -1.90625 0.546875q-0.84375 0 -1.359375 -0.28125q-0.5 -0.28125 -0.78125 -0.640625q-0.265625 -0.375 -0.40625 -0.609375l-0.125 0l0 4.609375l-1.328125 0zm1.3125 -7.625q0 0.984375 0.28125 1.734375q0.296875 0.75 0.84375 1.1875q0.5625 0.421875 1.375 0.421875q0.84375 0 1.40625 -0.453125q0.5625 -0.453125 0.84375 -1.203125q0.296875 -0.765625 0.296875 -1.6875q0 -0.921875 -0.28125 -1.65625q-0.28125 -0.75 -0.859375 -1.1875q-0.5625 -0.4375 -1.40625 -0.4375q-0.8125 0 -1.375 0.421875q-0.5625 0.40625 -0.84375 1.140625q-0.28125 0.734375 -0.28125 1.71875zm18.437347 0.796875l0 -5.171875l1.328125 0l0 8.734375l-1.328125 0l0 -1.484375l-0.09375 0q-0.3125 0.671875 -0.96875 1.140625q-0.640625 0.453125 -1.625 0.453125q-0.8125 0 -1.453125 -0.359375q-0.640625 -0.359375 -1.0 -1.078125q-0.359375 -0.734375 -0.359375 -1.859375l0 -5.546875l1.328125 0l0 5.46875q0 0.953125 0.53125 1.515625q0.546875 0.5625 1.390625 0.5625q0.5 0 1.015625 -0.25q0.515625 -0.25 0.875 -0.78125q0.359375 -0.53125 0.359375 -1.34375zm9.967224 -3.203125l-1.203125 0.328125q-0.109375 -0.296875 -0.328125 -0.578125q-0.21875 -0.296875 -0.59375 -0.484375q-0.375 -0.1875 -0.96875 -0.1875q-0.796875 0 -1.328125 0.375q-0.53125 0.359375 -0.53125 0.921875q0 0.5 0.359375 0.796875q0.375 0.28125 1.140625 0.484375l1.296875 0.3125q1.171875 0.28125 1.734375 0.875q0.578125 0.578125 0.578125 1.484375q0 0.75 -0.4375 1.34375q-0.421875 0.59375 -1.1875 0.9375q-0.765625 0.34375 -1.78125 0.34375q-1.328125 0 -2.203125 -0.578125q-0.875 -0.59375 -1.109375 -1.703125l1.265625 -0.3125q0.1875 0.703125 0.6875 1.0625q0.515625 0.34375 1.34375 0.34375q0.9375 0 1.484375 -0.390625q0.5625 -0.40625 0.5625 -0.96875q0 -0.453125 -0.328125 -0.765625q-0.3125 -0.3125 -0.96875 -0.46875l-1.453125 -0.34375q-1.203125 -0.28125 -1.765625 -0.875q-0.5625 -0.609375 -0.5625 -1.5q0 -0.75 0.421875 -1.3125q0.421875 -0.5625 1.140625 -0.890625q0.71875 -0.328125 1.640625 -0.328125q1.296875 0 2.03125 0.578125q0.75 0.5625 1.0625 1.5zm2.191681 6.765625l0 -8.734375l1.328125 0l0 8.734375l-1.328125 0zm0.671875 -10.1875q-0.390625 0 -0.671875 -0.265625q-0.28125 -0.265625 -0.28125 -0.640625q0 -0.375 0.28125 -0.640625q0.28125 -0.265625 0.671875 -0.265625q0.390625 0 0.671875 0.265625q0.28125 0.265625 0.28125 0.640625q0 0.375 -0.28125 0.640625q-0.28125 0.265625 -0.671875 0.265625zm4.45166 4.9375l0 5.25l-1.328125 0l0 -8.734375l1.28125 0l0 1.375l0.125 0q0.296875 -0.671875 0.921875 -1.078125q0.625 -0.40625 1.625 -0.40625q0.875 0 1.53125 0.359375q0.671875 0.359375 1.046875 1.09375q0.375 0.734375 0.375 1.84375l0 5.546875l-1.34375 0l0 -5.453125q0 -1.03125 -0.53125 -1.609375q-0.53125 -0.578125 -1.46875 -0.578125q-0.640625 0 -1.15625 0.28125q-0.5 0.28125 -0.796875 0.8125q-0.28125 0.53125 -0.28125 1.296875zm11.551025 8.703125q-0.96875 0 -1.671875 -0.25q-0.703125 -0.25 -1.171875 -0.65625q-0.453125 -0.390625 -0.71875 -0.84375l1.0625 -0.75q0.1875 0.234375 0.453125 0.546875q0.28125 0.3125 0.765625 0.53125q0.484375 0.234375 1.28125 0.234375q1.0625 0 1.75 -0.515625q0.6875 -0.5 0.6875 -1.59375l0 -1.765625l-0.125 0q-0.140625 0.234375 -0.421875 0.59375q-0.265625 0.34375 -0.765625 0.609375q-0.5 0.265625 -1.359375 0.265625q-1.046875 0 -1.890625 -0.5q-0.828125 -0.5 -1.328125 -1.453125q-0.484375 -0.953125 -0.484375 -2.3125q0 -1.34375 0.46875 -2.34375q0.484375 -1.0 1.3125 -1.546875q0.84375 -0.546875 1.953125 -0.546875q0.84375 0 1.34375 0.28125q0.515625 0.28125 0.78125 0.640625q0.265625 0.359375 0.421875 0.578125l0.140625 0l0 -1.390625l1.28125 0l0 8.984375q0 1.125 -0.515625 1.828125q-0.5 0.71875 -1.359375 1.046875q-0.84375 0.328125 -1.890625 0.328125zm-0.046875 -4.796875q0.8125 0 1.359375 -0.359375q0.5625 -0.375 0.84375 -1.0625q0.296875 -0.703125 0.296875 -1.671875q0 -0.9375 -0.28125 -1.65625q-0.28125 -0.71875 -0.84375 -1.125q-0.5625 -0.421875 -1.375 -0.421875q-0.84375 0 -1.421875 0.4375q-0.5625 0.4375 -0.84375 1.171875q-0.28125 0.71875 -0.28125 1.59375q0 0.921875 0.28125 1.625q0.296875 0.6875 0.859375 1.078125q0.5625 0.390625 1.40625 0.390625zm14.062347 1.53125q-1.078125 0 -1.921875 -0.546875q-0.828125 -0.5625 -1.3125 -1.578125q-0.46875 -1.015625 -0.46875 -2.40625q0 -1.375 0.46875 -2.375q0.484375 -1.015625 1.3125 -1.5625q0.84375 -0.5625 1.953125 -0.5625q0.84375 0 1.34375 0.28125q0.5 0.28125 0.765625 0.640625q0.265625 0.359375 0.40625 0.578125l0.125 0l0 -4.296875l1.328125 0l0 11.640625l-1.28125 0l0 -1.34375l-0.171875 0q-0.140625 0.234375 -0.421875 0.609375q-0.265625 0.359375 -0.78125 0.640625q-0.5 0.28125 -1.34375 0.28125zm0.1875 -1.203125q0.8125 0 1.359375 -0.421875q0.5625 -0.4375 0.84375 -1.1875q0.296875 -0.75 0.296875 -1.734375q0 -0.984375 -0.28125 -1.71875q-0.28125 -0.734375 -0.84375 -1.140625q-0.5625 -0.421875 -1.375 -0.421875q-0.84375 0 -1.421875 0.4375q-0.5625 0.4375 -0.84375 1.1875q-0.28125 0.734375 -0.28125 1.65625q0 0.921875 0.28125 1.6875q0.296875 0.75 0.859375 1.203125q0.5625 0.453125 1.40625 0.453125zm9.025452 1.21875q-0.828125 0 -1.515625 -0.3125q-0.671875 -0.3125 -1.078125 -0.90625q-0.390625 -0.609375 -0.390625 -1.46875q0 -0.75 0.296875 -1.21875q0.296875 -0.46875 0.78125 -0.734375q0.5 -0.265625 1.09375 -0.390625q0.609375 -0.140625 1.21875 -0.21875q0.796875 -0.09375 1.296875 -0.140625q0.5 -0.0625 0.71875 -0.1875q0.234375 -0.140625 0.234375 -0.46875l0 -0.046875q0 -0.84375 -0.453125 -1.296875q-0.453125 -0.46875 -1.390625 -0.46875q-0.953125 0 -1.5 0.421875q-0.546875 0.421875 -0.765625 0.890625l-1.28125 -0.453125q0.34375 -0.796875 0.90625 -1.234375q0.578125 -0.453125 1.25 -0.625q0.6875 -0.1875 1.34375 -0.1875q0.421875 0 0.96875 0.109375q0.546875 0.09375 1.0625 0.40625q0.515625 0.296875 0.859375 0.921875q0.34375 0.609375 0.34375 1.65625l0 5.75l-1.34375 0l0 -1.1875l-0.0625 0q-0.140625 0.296875 -0.46875 0.625q-0.3125 0.3125 -0.84375 0.546875q-0.515625 0.21875 -1.28125 0.21875zm0.203125 -1.203125q0.796875 0 1.34375 -0.3125q0.546875 -0.3125 0.828125 -0.796875q0.28125 -0.5 0.28125 -1.046875l0 -1.234375q-0.078125 0.109375 -0.375 0.1875q-0.28125 0.078125 -0.65625 0.140625q-0.375 0.0625 -0.71875 0.109375q-0.34375 0.03125 -0.5625 0.0625q-0.53125 0.078125 -0.984375 0.234375q-0.453125 0.140625 -0.734375 0.4375q-0.265625 0.296875 -0.265625 0.8125q0 0.703125 0.515625 1.0625q0.53125 0.34375 1.328125 0.34375zm6.2569885 1.0l0 -8.734375l1.28125 0l0 1.328125l0.09375 0q0.25 -0.65625 0.875 -1.046875q0.625 -0.40625 1.40625 -0.40625q0.140625 0 0.359375 0q0.234375 0 0.34375 0.015625l0 1.359375q-0.078125 -0.015625 -0.3125 -0.046875q-0.234375 -0.03125 -0.515625 -0.03125q-0.625 0 -1.125 0.265625q-0.5 0.25 -0.796875 0.71875q-0.28125 0.46875 -0.28125 1.0625l0 5.515625l-1.328125 0zm7.2044983 -3.1875l-0.03125 -1.65625l0.28125 0l3.8125 -3.890625l1.65625 0l-4.0625 4.125l-0.125 0l-1.53125 1.421875zm-1.25 3.1875l0 -11.640625l1.328125 0l0 11.640625l-1.328125 0zm5.53125 0l-3.40625 -4.3125l0.953125 -0.9375l4.171875 5.25l-1.71875 0zm11.454407 -8.734375l0 1.140625l-4.515625 0l0 -1.140625l4.515625 0zm-3.203125 -2.078125l1.34375 0l0 8.3125q0 0.5625 0.171875 0.84375q0.171875 0.28125 0.421875 0.375q0.265625 0.09375 0.5625 0.09375q0.234375 0 0.375 -0.015625q0.140625 -0.03125 0.21875 -0.046875l0.28125 1.203125q-0.140625 0.046875 -0.390625 0.09375q-0.234375 0.0625 -0.609375 0.0625q-0.578125 0 -1.125 -0.234375q-0.53125 -0.25 -0.890625 -0.75q-0.359375 -0.5 -0.359375 -1.265625l0 -8.671875zm6.749939 5.5625l0 5.25l-1.328125 0l0 -11.640625l1.328125 0l0 4.28125l0.125 0q0.296875 -0.6875 0.90625 -1.078125q0.625 -0.40625 1.65625 -0.40625q0.890625 0 1.5625 0.359375q0.671875 0.359375 1.046875 1.09375q0.375 0.71875 0.375 1.84375l0 5.546875l-1.34375 0l0 -5.453125q0 -1.046875 -0.546875 -1.609375q-0.53125 -0.578125 -1.484375 -0.578125q-0.65625 0 -1.171875 0.28125q-0.515625 0.28125 -0.828125 0.8125q-0.296875 0.53125 -0.296875 1.296875zm11.782562 5.4375q-1.265625 0 -2.1875 -0.5625q-0.90625 -0.5625 -1.40625 -1.5625q-0.484375 -1.015625 -0.484375 -2.359375q0 -1.34375 0.484375 -2.359375q0.5 -1.03125 1.375 -1.609375q0.890625 -0.578125 2.078125 -0.578125q0.6875 0 1.34375 0.234375q0.671875 0.21875 1.21875 0.734375q0.546875 0.5 0.859375 1.34375q0.328125 0.828125 0.328125 2.046875l0 0.578125l-6.734375 0l0 -1.15625l5.375 0q0 -0.75 -0.296875 -1.328125q-0.296875 -0.578125 -0.828125 -0.90625q-0.53125 -0.34375 -1.265625 -0.34375q-0.796875 0 -1.390625 0.40625q-0.578125 0.390625 -0.890625 1.03125q-0.3125 0.625 -0.3125 1.34375l0 0.765625q0 0.984375 0.34375 1.671875q0.34375 0.6875 0.953125 1.046875q0.625 0.359375 1.4375 0.359375q0.53125 0 0.953125 -0.15625q0.421875 -0.15625 0.734375 -0.453125q0.3125 -0.3125 0.484375 -0.765625l1.296875 0.375q-0.203125 0.65625 -0.6875 1.15625q-0.484375 0.484375 -1.203125 0.765625q-0.703125 0.28125 -1.578125 0.28125zm5.661804 -0.1875l0 -8.734375l1.28125 0l0 1.375l0.125 0q0.265625 -0.703125 0.875 -1.09375q0.609375 -0.390625 1.46875 -0.390625q0.859375 0 1.4375 0.390625q0.578125 0.390625 0.890625 1.09375l0.09375 0q0.34375 -0.6875 1.0 -1.078125q0.671875 -0.40625 1.609375 -0.40625q1.171875 0 1.921875 0.734375q0.75 0.734375 0.75 2.265625l0 5.84375l-1.34375 0l0 -5.84375q0 -0.96875 -0.53125 -1.375q-0.53125 -0.421875 -1.25 -0.421875q-0.921875 0 -1.421875 0.5625q-0.5 0.546875 -0.5 1.390625l0 5.6875l-1.375 0l0 -5.984375q0 -0.734375 -0.484375 -1.1875q-0.46875 -0.46875 -1.234375 -0.46875q-0.53125 0 -0.984375 0.28125q-0.4375 0.28125 -0.71875 0.78125q-0.28125 0.484375 -0.28125 1.125l0 5.453125l-1.328125 0zm17.565186 0.1875q-1.265625 0 -2.1875 -0.5625q-0.90625 -0.5625 -1.40625 -1.5625q-0.484375 -1.015625 -0.484375 -2.359375q0 -1.34375 0.484375 -2.359375q0.5 -1.03125 1.375 -1.609375q0.890625 -0.578125 2.078125 -0.578125q0.6875 0 1.34375 0.234375q0.671875 0.21875 1.21875 0.734375q0.546875 0.5 0.859375 1.34375q0.328125 0.828125 0.328125 2.046875l0 0.578125l-6.734375 0l0 -1.15625l5.375 0q0 -0.75 -0.296875 -1.328125q-0.296875 -0.578125 -0.828125 -0.90625q-0.53125 -0.34375 -1.265625 -0.34375q-0.796875 0 -1.390625 0.40625q-0.578125 0.390625 -0.890625 1.03125q-0.3125 0.625 -0.3125 1.34375l0 0.765625q0 0.984375 0.34375 1.671875q0.34375 0.6875 0.953125 1.046875q0.625 0.359375 1.4375 0.359375q0.53125 0 0.953125 -0.15625q0.421875 -0.15625 0.734375 -0.453125q0.3125 -0.3125 0.484375 -0.765625l1.296875 0.375q-0.203125 0.65625 -0.6875 1.15625q-0.484375 0.484375 -1.203125 0.765625q-0.703125 0.28125 -1.578125 0.28125zm7.4274597 -11.828125l-0.109375 8.375l-1.328125 0l-0.109375 -8.375l1.546875 0zm-0.765625 11.734375q-0.421875 0 -0.734375 -0.296875q-0.296875 -0.3125 -0.296875 -0.734375q0 -0.421875 0.296875 -0.71875q0.3125 -0.296875 0.734375 -0.296875q0.40625 0 0.703125 0.296875q0.3125 0.296875 0.3125 0.71875q0 0.28125 -0.140625 0.515625q-0.140625 0.234375 -0.375 0.375q-0.21875 0.140625 -0.5 0.140625z" fill-rule="nonzero"/></g></svg>
